<svg width="240" height="65" viewBox="0 0 240 65" fill="none" xmlns="http://www.w3.org/2000/svg">
<path d="M76.7988 24.3854C76.7988 22.4583 77.2936 20.7135 78.2831 19.151C79.2901 17.5712 80.6269 16.3125 82.2936 15.375C83.9602 14.4375 85.8092 13.9687 87.8404 13.9687H96.5123C98.5436 13.9687 100.393 14.4375 102.059 15.375C103.743 16.3125 105.08 17.5712 106.07 19.151C107.059 20.7135 107.554 22.4583 107.554 24.3854V40.5833C107.554 42.4931 107.059 44.2378 106.07 45.8177C105.08 47.3976 103.743 48.6562 102.059 49.5937C100.393 50.5312 98.5436 51 96.5123 51H87.8404C85.8092 51 83.9602 50.5312 82.2936 49.5937C80.6269 48.6562 79.2901 47.3976 78.2831 45.8177C77.2936 44.2378 76.7988 42.4931 76.7988 40.5833V24.3854ZM82.2936 40.6094C82.2936 41.9635 82.8318 43.1267 83.9081 44.099C85.0019 45.0538 86.3127 45.5312 87.8404 45.5312H96.5123C98.0575 45.5312 99.3682 45.0538 100.445 44.099C101.521 43.1267 102.059 41.9635 102.059 40.6094V24.3594C102.059 23.0052 101.521 21.8507 100.445 20.8958C99.3682 19.9236 98.0575 19.4375 96.5123 19.4375H87.8404C86.3127 19.4375 85.0019 19.9236 83.9081 20.8958C82.8318 21.8507 82.2936 23.0052 82.2936 24.3594V40.6094ZM114.872 13.9687H134.559C136.486 13.9687 138.24 14.4375 139.82 15.375C141.417 16.3125 142.684 17.5712 143.622 19.151C144.559 20.7135 145.028 22.4583 145.028 24.3854V40.6875C145.028 42.5799 144.559 44.3073 143.622 45.8698C142.684 47.4323 141.417 48.6823 139.82 49.6198C138.24 50.5399 136.486 51 134.559 51H114.872V13.9687ZM134.559 45.5052C135.948 45.5052 137.129 45.0278 138.101 44.0729C139.073 43.1181 139.559 41.9635 139.559 40.6094V24.3854C139.559 23.0139 139.073 21.8507 138.101 20.8958C137.129 19.9236 135.948 19.4375 134.559 19.4375H120.366V45.5052H134.559ZM162.606 32.4844L149.195 13.9687H155.913L166.044 28.0052L176.148 13.9687H182.84L169.455 32.4844L182.84 51H176.148L166.044 36.9375L155.913 51H149.195L162.606 32.4844Z" fill="white"/>
<g clip-path="url(#clip0_1_3)">
<rect x="0.000133514" y="8.05539" width="53.7931" height="53.7931" fill="#00B05B"/>
<path d="M28.472 16.661C31.8106 16.661 34.477 17.6583 36.471 19.6522C38.465 21.6462 39.4622 24.2205 39.4622 27.3739V42.3289C39.4622 45.5287 38.465 48.1029 36.471 50.0506C34.477 51.9981 31.8106 52.9715 28.472 52.9715C28.3189 52.9715 28.1671 52.9668 28.0169 52.9627C31.1444 52.8777 33.6599 51.9092 35.5628 50.0506C37.5568 48.1029 38.554 45.5287 38.554 42.3289V27.3739C38.554 24.2205 37.5568 21.6462 35.5628 19.6522C33.6605 17.7499 31.146 16.7563 28.0198 16.6688C28.1691 16.6645 28.32 16.661 28.472 16.661ZM27.5628 20.9745C27.7165 20.9745 27.8681 20.9806 28.0169 20.9901C26.4606 21.09 25.1741 21.7098 24.1585 22.8524C23.0457 24.0581 22.4895 25.6583 22.4895 27.6522V41.9813C22.4895 43.9753 23.0456 45.5754 24.1585 46.7811C25.1741 47.8814 26.4606 48.4778 28.0169 48.5741C27.8681 48.5832 27.7165 48.5897 27.5628 48.5897C25.8008 48.5896 24.3632 47.9867 23.2503 46.7811C22.1373 45.5754 21.5813 43.9753 21.5813 41.9813V27.6522C21.5813 25.6582 22.1374 24.0581 23.2503 22.8524C24.3632 21.6004 25.8008 20.9745 27.5628 20.9745Z" fill="white"/>
<path d="M25.4445 52.9713C22.1056 52.9713 19.4391 51.9975 17.4451 50.0498C15.4974 48.1021 14.5235 45.5284 14.5235 42.3286V27.3732C14.5235 24.2198 15.5206 21.6461 17.5146 19.6521C19.5087 17.658 22.152 16.661 25.4445 16.661C28.7834 16.661 31.4498 17.658 33.4439 19.6521C35.4379 21.6461 36.435 24.2198 36.435 27.3732V42.3286C36.435 45.5284 35.4379 48.1021 33.4439 50.0498C31.4498 51.9975 28.7834 52.9713 25.4445 52.9713ZM25.4445 48.589C27.2067 48.589 28.6442 47.9862 29.7572 46.7805C30.9165 45.5748 31.4962 43.9749 31.4962 41.9808V27.6515C31.4962 25.6574 30.9165 24.0575 29.7572 22.8518C28.6442 21.5997 27.2067 20.9737 25.4445 20.9737C23.6823 20.9737 22.2447 21.5997 21.1317 22.8518C20.0188 24.0575 19.4623 25.6574 19.4623 27.6515V41.9808C19.4623 43.9749 20.0188 45.5748 21.1317 46.7805C22.2447 47.9862 23.6823 48.589 25.4445 48.589Z" fill="white"/>
</g>
<defs>
<clipPath id="clip0_1_3">
<rect x="0.000167847" y="8.05557" width="53.7931" height="53.7931" rx="11.0276" fill="white"/>
</clipPath>
</defs>
</svg>
