<svg width="125" height="34" viewBox="0 0 125 34" fill="none" xmlns="http://www.w3.org/2000/svg">
<path d="M46.6492 26.3147C45.0406 26.3147 43.633 25.9563 42.4264 25.2394C41.2374 24.5225 40.3194 23.5345 39.6724 22.2755C39.043 21.0166 38.7719 19.574 38.8594 17.9478C38.9118 16.4615 39.2266 15.0714 39.8036 13.7775C40.3806 12.4835 41.1587 11.3557 42.1379 10.394C43.1346 9.43229 44.2799 8.6804 45.5739 8.13834C46.8678 7.59629 48.2579 7.32526 49.7442 7.32526C51.3529 7.32526 52.7518 7.68371 53.9408 8.40063C55.1298 9.11754 56.0391 10.1055 56.6686 11.3645C57.3155 12.6234 57.5953 14.0573 57.5079 15.6659C57.4554 17.1697 57.1319 18.5686 56.5374 19.8625C55.9604 21.1565 55.1735 22.2843 54.1768 23.246C53.1976 24.2077 52.0611 24.9596 50.7671 25.5017C49.4907 26.0437 48.118 26.3147 46.6492 26.3147ZM47.1476 22.7739C48.0044 22.7739 48.8 22.6078 49.5344 22.2755C50.2863 21.9258 50.9507 21.445 51.5278 20.833C52.1048 20.2035 52.5594 19.4778 52.8916 18.656C53.2414 17.8167 53.4337 16.9074 53.4687 15.9282C53.5211 14.9141 53.3987 14.031 53.1015 13.2791C52.8042 12.5098 52.3321 11.924 51.6851 11.5218C51.0382 11.1022 50.2163 10.8923 49.2196 10.8923C48.3628 10.8923 47.5585 11.0585 46.8066 11.3907C46.0722 11.7229 45.4165 12.2038 44.8395 12.8333C44.2624 13.4453 43.7991 14.1622 43.4494 14.984C43.1171 15.8058 42.9335 16.7063 42.8986 17.6855C42.8461 18.7172 42.9772 19.6177 43.292 20.3871C43.6067 21.139 44.0876 21.7247 44.7346 22.1444C45.399 22.5641 46.2034 22.7739 47.1476 22.7739ZM57.4259 26L59.734 12.7808H63.1962V14.8004C63.7208 14.101 64.3765 13.5414 65.1633 13.1218C65.9677 12.6846 66.8769 12.4661 67.8911 12.4661C69.0277 12.4661 69.9282 12.7109 70.5927 13.2005C71.2746 13.6901 71.7292 14.3807 71.9565 15.2725C72.1839 16.1643 72.1926 17.2222 71.9828 18.4462L70.6451 26H66.7371L67.996 18.8134C68.1534 17.8517 68.0835 17.1085 67.7862 16.5839C67.4889 16.0419 66.8857 15.7709 65.9764 15.7709C65.4519 15.7709 64.9535 15.902 64.4814 16.1643C64.0093 16.4091 63.6071 16.7675 63.2749 17.2397C62.9601 17.6943 62.7416 18.2538 62.6192 18.9183L61.3602 26H57.4259ZM72.6354 26L75.9664 7.11543H79.9007L76.5697 26H72.6354ZM79.4352 31.7703L83.5268 25.1082H82.74L79.8286 12.7808H84.0776L85.9661 21.41L90.8184 12.7808H95.0412L83.6055 31.7703H79.4352Z" fill="white"/>
<path d="M98.8603 26.3147C97.7937 26.3147 96.8669 26.0525 96.0801 25.5279C95.3107 24.9858 94.7249 24.2602 94.3227 23.3509C93.9381 22.4417 93.7807 21.4013 93.8506 20.2297C93.8856 19.1281 94.1042 18.1052 94.5063 17.161C94.9085 16.2167 95.4418 15.3949 96.1063 14.6955C96.7707 13.9961 97.5401 13.454 98.4144 13.0693C99.2887 12.6671 100.233 12.4661 101.247 12.4661C102.244 12.4661 103.057 12.6497 103.686 13.0169C104.316 13.3666 104.788 13.8125 105.103 14.3545L106.362 7.11543H110.296L106.965 26H103.477L103.319 24.2951C103.022 24.6623 102.655 25.0033 102.218 25.3181C101.798 25.6153 101.308 25.8514 100.749 26.0262C100.207 26.2186 99.5772 26.3147 98.8603 26.3147ZM100.539 22.8788C101.238 22.8788 101.868 22.7039 102.427 22.3542C103.004 21.987 103.468 21.5062 103.817 20.9117C104.167 20.2997 104.36 19.6265 104.395 18.8921C104.429 18.2975 104.342 17.773 104.132 17.3183C103.922 16.8637 103.608 16.514 103.188 16.2692C102.768 16.0244 102.27 15.902 101.693 15.902C100.994 15.902 100.364 16.0769 99.8045 16.4266C99.245 16.7588 98.7903 17.2222 98.4406 17.8167C98.1084 18.3937 97.9248 19.0582 97.8898 19.8101C97.8723 20.3871 97.9598 20.9117 98.1521 21.3838C98.3619 21.8559 98.6679 22.2231 99.0701 22.4854C99.4723 22.7477 99.9619 22.8788 100.539 22.8788ZM107.888 26L113.894 19.3642L110.222 12.7808H114.445L116.753 17.0561L120.53 12.7808H124.779L118.772 19.3904L122.444 26H118.222L115.94 21.6985L112.137 26H107.888Z" fill="#00B05B"/>
<path d="M0.975586 8.11068C0.975586 5.81668 2.83524 3.95703 5.12923 3.95703H24.3219C26.6159 3.95703 28.4756 5.81668 28.4756 8.11068V27.3034C28.4756 29.5974 26.6159 31.457 24.3219 31.457H5.12923C2.83524 31.457 0.975586 29.5974 0.975586 27.3034V8.11068Z" fill="#00B05B"/>
<path d="M15.5332 8.35547C17.2401 8.35547 18.6037 8.86537 19.623 9.88477C20.6422 10.9041 21.1514 12.2202 21.1514 13.832V21.4766C21.1514 23.1121 20.6422 24.4282 19.623 25.4238C18.6037 26.4195 17.2401 26.918 15.5332 26.918C15.4547 26.918 15.3769 26.9152 15.2998 26.9131C16.8986 26.8696 18.1844 26.374 19.1572 25.4238C20.1765 24.4282 20.6865 23.1122 20.6865 21.4766V13.832C20.6865 12.2201 20.1765 10.9041 19.1572 9.88477C18.1848 8.91238 16.8997 8.40422 15.3018 8.35938C15.3782 8.35719 15.4553 8.35547 15.5332 8.35547ZM15.0674 10.5596C15.146 10.5596 15.2237 10.5625 15.2998 10.5674C14.5046 10.6187 13.8471 10.9366 13.3281 11.5205C12.7594 12.1368 12.4746 12.9545 12.4746 13.9736V21.2988C12.4746 22.3181 12.7593 23.1366 13.3281 23.7529C13.8471 24.3151 14.5047 24.6176 15.2998 24.667C15.2237 24.6717 15.146 24.6777 15.0674 24.6777C14.1668 24.6776 13.4321 24.3691 12.8633 23.7529C12.2943 23.1365 12.0098 22.3182 12.0098 21.2988V13.9736C12.0098 12.9544 12.2944 12.1368 12.8633 11.5205C13.4322 10.8805 14.1667 10.5597 15.0674 10.5596Z" fill="white"/>
<path d="M13.9829 26.918C12.276 26.918 10.9128 26.4201 9.89344 25.4244C8.89775 24.4287 8.3999 23.113 8.3999 21.4772V13.8318C8.3999 12.2197 8.9096 10.904 9.929 9.88456C10.9484 8.86517 12.2997 8.35547 13.9829 8.35547C15.6898 8.35547 17.0529 8.86517 18.0723 9.88456C19.0917 10.904 19.6014 12.2197 19.6014 13.8318V21.4772C19.6014 23.113 19.0917 24.4287 18.0723 25.4244C17.0529 26.4201 15.6898 26.918 13.9829 26.918ZM13.9829 24.6777C14.8837 24.6777 15.6187 24.3695 16.1876 23.7531C16.7803 23.1367 17.0766 22.3188 17.0766 21.2994V13.974C17.0766 12.9546 16.7803 12.1367 16.1876 11.5203C15.6187 10.8803 14.8837 10.5602 13.9829 10.5602C13.082 10.5602 12.3471 10.8803 11.7781 11.5203C11.2092 12.1367 10.9247 12.9546 10.9247 13.974V21.2994C10.9247 22.3188 11.2092 23.1367 11.7781 23.7531C12.3471 24.3695 13.082 24.6777 13.9829 24.6777Z" fill="white"/>
</svg>
